# xmcd
#
# Track frame offsets:
#	150
#	13149
#	30016
#	59280
#	70508
#	90690
#	104875
#	118704
#	131651
#	144969
#	156945
#	170562
#	183773
#	196636
#	207080
#	218843
#
# Disc length: 3094 seconds
#
# Revision: 0
# Processed by: cddbd v1.5.1PL0 Copyright (c) Steve Scherf et al.
# Submitted via: audiograbber 1.82.02
#
DISCID=d70c1410
DTITLE=Jeffrey de Bruyn - Seven Spanish Angels
DYEAR=2004
DGENRE=Country
TTITLE0=Heaven Is My Womans Love
TTITLE1=Seven Spanish Angels
TTITLE2=Country Medley: Oh Lonesome Me, I recall A Gypsy Woman, Some Broken Hea
TTITLE2=rts
TTITLE3=Honky Tonk Angels
TTITLE4=El Paso
TTITLE5=Ashes Of Love
TTITLE6=Detroit City
TTITLE7=Your Cheatin' Heart
TTITLE8=She Thinks I Still Care
TTITLE9=Ring Of Fire
TTITLE10=Satin Sheets
TTITLE11=Devil Woman
TTITLE12=Lovebug
TTITLE13=Roses Are Red
TTITLE14=Oukie From Muskogee
TTITLE15=Heartaches By The Number
EXTD=
EXTT0=
EXTT1=
EXTT2=
EXTT3=
EXTT4=
EXTT5=
EXTT6=
EXTT7=
EXTT8=
EXTT9=
EXTT10=
EXTT11=
EXTT12=
EXTT13=
EXTT14=
EXTT15=
PLAYORDER=
